<svg xmlns="http://www.w3.org/2000/svg" viewBox="0 0 200 200" width="200" height="200">
  <defs>
    <radialGradient id="bgGradAmber" cx="50%" cy="50%" r="65%">
      <stop offset="0%" stop-color="#2a190b"/>
      <stop offset="60%" stop-color="#140f09"/>
      <stop offset="100%" stop-color="#090604"/>
    </radialGradient>
    <linearGradient id="squareGradAmber" x1="0%" y1="0%" x2="100%" y2="100%">
      <stop offset="0%" stop-color="#f59e0b"/>
      <stop offset="50%" stop-color="#d97706"/>
      <stop offset="100%" stop-color="#ea580c"/>
    </linearGradient>
    <linearGradient id="letterGradAmber" x1="0%" y1="0%" x2="100%" y2="100%">
      <stop offset="0%" stop-color="#fffbeb"/>
      <stop offset="40%" stop-color="#fde68a"/>
      <stop offset="100%" stop-color="#fbbf24"/>
    </linearGradient>
    <filter id="neonGlowAmber" x="-30%" y="-30%" width="160%" height="160%">
      <feGaussianBlur stdDeviation="6" result="blur1"/>
      <feGaussianBlur stdDeviation="14" result="blur2"/>
      <feMerge>
        <feMergeNode in="blur2"/>
        <feMergeNode in="blur1"/>
        <feMergeNode in="SourceGraphic"/>
      </feMerge>
    </filter>
  </defs>
  <rect width="200" height="200" rx="36" fill="url(#bgGradAmber)"/>
  <circle cx="100" cy="100" r="55" fill="#f59e0b" opacity="0.25" filter="url(#neonGlowAmber)"/>
  <rect x="28" y="28" width="144" height="144" rx="28" fill="none" stroke="url(#squareGradAmber)" stroke-width="4" opacity="0.65" filter="url(#neonGlowAmber)"/>
  <rect x="28" y="28" width="144" height="144" rx="28" fill="rgba(245, 158, 11, 0.08)" stroke="url(#squareGradAmber)" stroke-width="3"/>
  <g>
    <rect x="66" y="52" width="18" height="96" rx="4" fill="url(#letterGradAmber)"/>
    <path d="M 66,52 L 106,52 C 126,52 140,63 140,78 C 140,93 126,104 106,104 L 66,104 Z" fill="url(#letterGradAmber)"/>
    <path d="M 84,68 L 104,68 C 114,68 122,72 122,78 C 122,84 114,88 104,88 L 84,88 Z" fill="#1b1207"/>
  </g>
  <circle cx="138" cy="78" r="3.5" fill="#fbbf24" filter="url(#neonGlowAmber)"/>
  <circle cx="66" cy="146" r="3" fill="#ea580c" filter="url(#neonGlowAmber)"/>
</svg>
